


Format                           : AVI
Format/Info                      : Audio Video Interleave
Format profile                   : OpenDML
File size                        : 1.45 GiB
Duration                         : 1h 27mn
Overall bit rate                 : 2 359 Kbps
Writing library                  : MPlayer

Video
ID                               : 0
Format                           : MPEG-4 Visual
Format profile                   : Advanced Simple@L5
Format settings, BVOP            : Yes
Format settings, QPel            : Yes
Format settings, GMC             : No warppoints
Format settings, Matrix          : Default (H.263)
Muxing mode                      : Packed bitstream
Codec ID                         : XVID
Codec ID/Hint                    : XviD
Duration                         : 1h 27mn
Bit rate                         : 1 906 Kbps
Width                            : 720 pixels
Height                           : 400 pixels
Display aspect ratio             : 16:9
Frame rate                       : 25.000 fps
Color space                      : YUV
Chroma subsampling               : 4:2:0
Bit depth                        : 8 bits
Scan type                        : Progressive
Bits/(Pixel*Frame)               : 0.265
Stream size                      : 1.17 GiB (81%)
Writing library                  : XviD 1.2.1 (UTC 2008-12-04)

Audio
ID                               : 1
Format                           : AC-3
Format/Info                      : Audio Coding 3
Mode extension                   : CM (complete main)
Codec ID                         : 2000
Duration                         : 1h 27mn
Bit rate mode                    : Constant
Bit rate                         : 448 Kbps
Channel(s)                       : 6 channels
Channel positions                : Front: L C R, Side: L R, LFE
Sampling rate                    : 48.0 KHz
Bit depth                        : 16 bits
Stream size                      : 281 MiB (19%)
Alignment                        : Split accross interleaves
Interleave, duration             : 500 ms (12.50 video frames)
Interleave, preload duration     : 500 ms



 
http://www.imdb.com/title/tt1262406/







acob, a young man armed with a deadly sword, saves Sarah, a teenage girl, from Mathias, a malevolent evil that has begun plaguing a small farmland town while in search of an ancient necklace that had belonged to Sarahs Uncle.

Jacob sets out to get Sarah home safely, running through streets, fields, churches and underground tunnels, while being pursued by hordes of demonic creatures. Along the way, both come to terms with the demons within themselves - Sarah begins to understand her hatred towards her mother and sister may be unjustified and Jacob discovers the secrets of his past, realizing the only way to truly defeat the demons is to return to the very place his family was murdered. 







 
http://img638.imageshack.us/img638/3193/vlcsnap2011041112h13m23.png
 
http://img705.imageshack.us/img705/5708/vlcsnap2011041112h13m52.png
 
http://img853.imageshack.us/img853/4359/vlcsnap2011041112h13m26.png


Source Russian DVD-5

Zatihajushie.kriki.2011.P.DVD.ELEKTRI4KA


Not one was gonna do but was asked .......My take on it ......... Enjoy 




Greetz to Imagine ,Flawl3ss,DiLLoN,BDK,NOiR,TOXiCiNK,THC,Ez,Rx,Boobyblue




